PathFileType	4	(X/Y/Z)	C:/Users/opensim2020/Desktop/walking_exp_matlab/subject02_walking11_straight_02.trc																																																																																																																												
DataRate	CameraRate	NumFrames	NumMarkers	Units	OrigDataRate	OrigDataStartFrame	OrigNumFrames																																																																																																																								
100	100	7	42	mm	100	1662	230																																																																																																																								
Frame#	Time	LFHD			RFHD			LBHD			RBHD			C7			T10			CLAV			STRN			RBAK			LSHO			LUPA			LELB			LFRM			LWRA			LWRB			LFIN			RSHO			RUPA			RELB			RFRM			RWRA			RWRB			RFIN			LASI			RASI			LPSI			RPSI			LTHI			LKNE			LTIB			LANK			LHEE			LTOE			RTHI			RKNE			RTIB			RANK			RHEE			RTOE			*39			*40			*41		
		X1	Y1	Z1	X2	Y2	Z2	X3	Y3	Z3	X4	Y4	Z4	X5	Y5	Z5	X6	Y6	Z6	X7	Y7	Z7	X8	Y8	Z8	X9	Y9	Z9	X10	Y10	Z10	X11	Y11	Z11	X12	Y12	Z12	X13	Y13	Z13	X14	Y14	Z14	X15	Y15	Z15	X16	Y16	Z16	X17	Y17	Z17	X18	Y18	Z18	X19	Y19	Z19	X20	Y20	Z20	X21	Y21	Z21	X22	Y22	Z22	X23	Y23	Z23	X24	Y24	Z24	X25	Y25	Z25	X26	Y26	Z26	X27	Y27	Z27	X28	Y28	Z28	X29	Y29	Z29	X30	Y30	Z30	X31	Y31	Z31	X32	Y32	Z32	X33	Y33	Z33	X34	Y34	Z34	X35	Y35	Z35	X36	Y36	Z36	X37	Y37	Z37	X38	Y38	Z38	X39	Y39	Z39	X40	Y40	Z40	X41	Y41	Z41	X42	Y42	Z42
																																																																																																																															
29	0.28	-675.20282	1748.41504	909.50549	-690.67786	1733.6958	1052.5094	-799.5072	1666.15112	888.55322	-827.0119	1648.7157	1028.98181	-857.31647	1532.50708	960.64709	-920.67426	1260.59778	960.25977	-719.89172	1459.5575	961.12061	-676.3371	1284.91077	975.54211	-927.00458	1362.57983	1017.68005	-772.13892	1506.54614	788.57098	-742.74725	1312.59644	698.68524	-703.77777	1174.90857	683.43207	-640.9704	1056.45386	685.56976	-551.07263	965.69385	741.45642	-583.87524	948.5899	698.73877	-538.40674	900.95154	704.19867	-796.54187	1496.22412	1152.59546	-841.50153	1305.09705	1230.30188	-834.45337	1159.25354	1250.0199	-799.95007	1044.15613	1274.36804	-738.90527	922.08624	1262.6593	-789.24994	914.78149	1287.72522	-747.17914	855.89557	1296.28687	-687.4035	988.76251	847.44702	-707.32501	982.44061	1104.07935	-901.96521	1039.02722	913.33966	-916.12549	1039.2146	1026.85205	-768.44452	678.20654	807.35828	-818.64343	479.34979	840.85956	-892.20361	297.51175	842.62579	-912.45734	76.69759	888.47424	-952.92975	50.17614	938.07184	-756.35339	38.30214	884.92889	-735.74579	690.1134	1195.44739	-678.50281	489.47308	1183.0907	-730.19012	309.9743	1189.05054	-749.38214	116.96709	1163.323	-767.40082	58.4553	1101.85864	-611.82697	56.77594	1216.89941	-789.49506	1810.38037	985.58301	-2845.86011	1034.17725	3357.2771	NaN	NaN	NaN
30	0.29	-667.63568	1747.99866	911.55841	-683.68829	1732.59119	1054.34106	-791.97809	1665.4657	890.09229	-819.91772	1647.61609	1030.22217	-850.159	1531.81677	961.6629	-913.68152	1260.026	961.21008	-712.67908	1458.7356	962.18146	-669.41364	1283.97766	976.35535	-919.88947	1361.78162	1018.28607	-764.75494	1506.02209	789.7049	-734.12128	1312.60522	699.65265	-693.52234	1175.30334	684.20612	-629.49377	1057.86462	686.87299	-538.45929	968.36981	743.4361	-570.4682	950.7254	700.5816	-524.34735	903.82928	706.21735	-789.41559	1495.10388	1153.73938	-835.39252	1304.19873	1231.00281	-829.18829	1158.33862	1250.63123	-795.44745	1042.98914	1274.93665	-735.06366	920.70007	1263.72644	-785.57269	913.57922	1288.43445	-743.88	854.43805	1297.26599	-681.09344	988.1814	848.245	-699.97107	981.88757	1104.80737	-895.32196	1038.26404	914.45612	-909.12604	1038.31641	1028.02014	-763.99304	677.57849	807.94281	-815.48389	479.01443	841.35089	-890.56464	297.76871	843.09753	-912.26923	76.95431	888.66895	-952.81848	50.53865	938.29242	-756.2619	38.23374	884.84552	-727.3147	689.39136	1195.65283	-668.43573	488.87289	1182.39099	-712.9444	307.35907	1190.32861	-724.99622	113.59229	1166.48694	-742.20038	54.47663	1105.90771	-584.47076	58.43409	1218.07983	-782.37408	1809.58801	987.32593	-2845.22046	1034.27478	3360.41479	NaN	NaN	NaN
31	0.3	-660.03564	1747.42114	913.42053	-676.71802	1731.50085	1056.46411	-784.78937	1664.97791	891.49756	-812.95642	1646.63733	1031.66479	-842.90942	1531.04895	962.77582	-906.55792	1259.33521	962.17395	-705.45197	1457.68689	963.3476	-662.41968	1283.06409	977.29834	-912.79919	1360.98633	1019.06616	-757.30212	1505.56274	790.91223	-725.51569	1312.45166	700.76483	-683.68683	1175.68469	685.05511	-617.61627	1058.94006	688.20428	-526.11432	970.77386	745.52185	-557.68884	952.63025	702.36426	-510.896	906.43604	708.25323	-782.36804	1493.90442	1154.57019	-829.23309	1303.28259	1231.87146	-823.78601	1157.36475	1251.31409	-790.87286	1041.81226	1275.70837	-731.05774	919.12885	1264.85596	-781.68768	912.45544	1289.4884	-740.36737	852.86786	1298.25061	-674.64166	987.47552	848.97852	-692.4809	981.30621	1105.60999	-888.5946	1037.47217	915.72833	-901.97339	1037.42871	1029.2887	-759.646	676.92145	808.51337	-812.26416	478.62967	841.93378	-888.6828	297.93854	843.453	-912.04279	77.21252	888.84015	-952.94116	50.92196	938.45557	-756.19928	38.18968	884.78436	-719.1496	688.55426	1195.82922	-658.71478	488.10089	1181.25195	-695.82703	305.1528	1192.07227	-700.92896	110.71319	1169.42505	-717.14929	50.87167	1109.58618	-557.65686	60.77757	1218.87451	-775.2113	1808.44739	989.4458	-2845.84155	1034.34314	3357.25952	NaN	NaN	NaN
32	0.31	-653.01367	1746.29089	915.82629	-669.6947	1730.33459	1058.46973	-777.4079	1664.4696	893.09851	-805.83606	1645.51489	1033.11719	-835.67499	1530.21826	963.9704	-899.31439	1258.40369	963.349	-698.26202	1456.90869	964.50958	-655.47278	1282.00562	978.31226	-905.72473	1360.13647	1019.93726	-749.94196	1505.09827	792.17865	-717.32739	1312.36731	701.87238	-673.95752	1175.82715	686.03113	-606.56311	1059.77185	689.5658	-514.33405	973.15399	747.33917	-545.63934	954.33148	703.98334	-498.0477	908.81604	710.2829	-775.29041	1492.82178	1155.84851	-822.96722	1302.29431	1232.81018	-818.17639	1156.20703	1251.88477	-786.17401	1040.672	1276.82251	-727.00543	917.5451	1265.99768	-777.82251	911.12378	1290.28589	-736.92578	851.44989	1299.31262	-668.18182	986.62677	849.73596	-684.77551	980.77264	1106.4436	-881.79773	1036.68872	917.18066	-894.7489	1036.55688	1030.77783	-754.84021	676.00452	809.27332	-809.03741	478.22836	842.59546	-886.79736	298.15106	843.91632	-911.74341	77.53262	889.02625	-952.78809	51.31198	938.64117	-756.13428	38.16781	884.68475	-711.14502	687.57031	1196.04468	-649.21637	487.37332	1180.42847	-679.09967	303.24008	1193.60608	-677.21899	108.60018	1172.28613	-692.14813	47.88513	1113.17603	-531.10748	63.66164	1219.50098	-768.03625	1807.76587	991.39612	-2845.86914	1034.30371	3357.40894	NaN	NaN	NaN
33	0.32	-645.14856	1745.83423	917.96472	-662.66602	1729.12048	1060.50793	-769.85406	1663.71851	894.91968	-798.79309	1644.46045	1034.71667	-828.42529	1529.34204	965.27496	-892.16113	1257.60657	964.60864	-691.00165	1455.81262	965.92163	-648.39642	1281.03711	979.38318	-898.54187	1359.23096	1020.88721	-742.49084	1504.53601	793.58875	-708.93054	1312.13428	703.20398	-664.75562	1175.98999	687.02832	-596.13525	1060.51367	690.98859	-502.88223	975.08533	749.23212	-533.84155	955.89099	705.84088	-485.64355	911.02216	712.2149	-768.19653	1491.60803	1157.22375	-816.63104	1301.2356	1233.87903	-812.5871	1155.12048	1252.8302	-781.30341	1039.50403	1278.05225	-722.8512	915.98505	1267.42114	-773.77216	909.88763	1291.41211	-733.30402	849.91187	1300.46997	-661.62097	985.74005	850.44147	-677.08667	980.09235	1107.09949	-874.89709	1035.86951	918.77209	-887.32452	1035.64197	1032.41028	-750.58008	675.53223	809.87366	-805.80316	477.90753	843.23584	-884.90387	298.49057	844.38977	-911.49561	77.89029	889.19592	-952.60864	51.81867	938.90485	-756.02875	38.12016	884.59241	-703.34393	686.46716	1196.33374	-639.94177	486.66486	1179.80127	-662.4884	301.60739	1194.73877	-653.91882	106.93676	1175.06628	-667.82013	45.50053	1116.49109	-505.30731	66.95716	1219.48706	-760.83057	1806.77588	993.55713	-2845.14478	1034.23364	3360.3833	NaN	NaN	NaN
34	0.33	-637.54498	1745.10315	920.21765	-655.49237	1727.78552	1062.94104	-762.59454	1663.07373	896.61017	-791.6767	1643.3501	1036.3667	-821.18274	1528.42065	966.71515	-885.09253	1256.78003	965.92365	-683.81238	1454.97192	967.29211	-641.20709	1279.776	980.50464	-891.45276	1358.31775	1022.07074	-735.07574	1504.12366	794.91858	-700.83612	1311.9762	704.53552	-655.60107	1175.95911	688.31848	-585.73877	1061.3678	692.48798	-491.81827	976.92841	751.10657	-522.58026	957.21655	707.66461	-473.76321	912.99957	714.1994	-761.15808	1490.37451	1158.63806	-810.30762	1300.11389	1235.02954	-807.08099	1154.15088	1254.00916	-776.41351	1038.09131	1278.83386	-718.60016	914.40454	1268.67114	-769.62	908.57758	1292.65137	-729.55884	848.2865	1301.65417	-654.93298	984.77545	851.01343	-669.14722	979.44342	1107.86987	-867.91565	1034.94702	920.47083	-879.72052	1034.70105	1034.18066	-745.8396	674.94519	810.67896	-802.53412	477.65814	843.94452	-883.05957	298.82446	844.96185	-911.29102	78.38428	889.36859	-952.21448	52.39679	939.23492	-755.97589	38.09398	884.53497	-695.80743	685.32898	1196.53442	-630.87842	486.01614	1179.35217	-646.60364	300.42349	1195.96216	-631.25769	105.87037	1177.58252	-644.35181	44.06351	1119.67981	-480.42023	70.44138	1219.26233	-753.65881	1805.9021	995.92719	-2845.21606	1034.25122	3360.43408	NaN	NaN	NaN
35	0.34	-630.86584	1743.98425	922.9118	-648.49689	1726.61035	1065.25122	-755.11957	1662.35742	898.50403	-784.56793	1642.23169	1038.18567	-813.89423	1527.48682	968.2417	-877.75867	1255.84985	967.48035	-676.44641	1454.02637	968.83868	-633.94531	1278.94885	981.74585	-884.06708	1357.24683	1023.13501	-727.573	1503.32861	796.58252	-692.78528	1311.68127	706.01611	-646.76221	1175.78186	689.60419	-575.84021	1061.72595	694.15283	-481.14331	978.51947	752.78119	-511.70517	958.39288	709.55334	-462.54871	914.63556	716.13037	-753.91101	1488.90308	1160.18445	-803.86865	1298.91418	1236.2229	-801.2749	1152.98901	1255.15686	-771.30597	1036.79333	1280.19238	-714.1933	912.64691	1270.05603	-765.41833	907.15656	1293.828	-725.7146	846.58282	1302.97241	-648.33594	983.60455	851.59088	-661.01074	978.75073	1108.65942	-860.85181	1033.99255	922.3656	-872.08154	1033.72876	1036.11975	-741.15137	674.31421	811.53265	-799.30383	477.40613	844.67957	-881.34534	299.30762	845.60468	-910.98309	78.85564	889.59338	-952.25458	53.10807	939.50604	-755.91882	38.035	884.45575	-688.27368	684.19495	1197.23914	-622.08588	485.32474	1179.05139	-631.23206	299.46631	1197.07385	-609.16925	105.26008	1179.78394	-621.79767	43.02506	1122.32202	-456.41837	73.9546	1218.5105	-746.36169	1804.81702	998.23071	-2845.88306	1034.22595	3357.37793	NaN	NaN	NaN
